<?xml version="1.0" encoding="utf-8"?>
<!-- Generator: Adobe Illustrator 25.0.0, SVG Export Plug-In . SVG Version: 6.00 Build 0)  -->
<svg version="1.1" id="Layer_1" xmlns="http://www.w3.org/2000/svg" xmlns:xlink="http://www.w3.org/1999/xlink" x="0px" y="0px"
	 viewBox="0 0 768 250" style="enable-background:new 0 0 768 250;" xml:space="preserve">
<style type="text/css">
	.st0{fill:#FF0000;}
	.st1{fill:none;}
	.st2{font-family:'MyriadPro-Regular';}
	.st3{font-size:100px;}
</style>
<g>
	<rect x="349.1" y="54.25" transform="matrix(0.7071 -0.7071 0.7071 0.7071 49.4962 297.4943)" width="69.51" height="69.51"/>
	<path d="M383.86,40.56L432.3,89l-48.44,48.44L335.41,89L383.86,40.56 M383.86,39.14L334,89l49.86,49.86L433.71,89L383.86,39.14
		L383.86,39.14z"/>
</g>
<g>
	<rect x="334.5" y="89.5" class="st0" width="99" height="99"/>
	<path d="M433,90v98h-98V90H433 M434,89H334v100h100V89L434,89z"/>
</g>
<rect x="197" y="101" class="st1" width="137.62" height="76"/>
<text transform="matrix(1 0 0 1 197 171.999)" class="st2 st3">My</text>
<rect x="434.47" y="102.08" class="st1" width="191.53" height="73.92"/>
<text transform="matrix(1 0 0 1 434.4717 173.084)" class="st2 st3">Blog</text>
</svg>
